<?xml version="1.0" encoding="utf-8"?>
<!-- Generator: Adobe Illustrator 14.0.0, SVG Export Plug-In . SVG Version: 6.00 Build 43363)  -->
<!DOCTYPE svg PUBLIC "-//W3C//DTD SVG 1.1//EN" "http://www.w3.org/Graphics/SVG/1.1/DTD/svg11.dtd">
<svg version="1.1" id="Layer_1" xmlns="http://www.w3.org/2000/svg" xmlns:xlink="http://www.w3.org/1999/xlink" x="0px" y="0px"
	 width="612px" height="792px" viewBox="0 0 612 792" enable-background="new 0 0 612 792" xml:space="preserve">
<g>
	<polygon fill-rule="evenodd" clip-rule="evenodd" fill="#FFFFFF" points="209,300 401.756,300 401.756,492.756 209,492.756 
		209,300 	"/>
	<path fill-rule="evenodd" clip-rule="evenodd" d="M318.491,362.312c-1.954,1.954-4.029,3.359-6.231,4.226
		c-2.205,0.867-4.714,1.3-7.533,1.3c-5.277,0-9.791-1.93-13.548-5.797c-3.757-3.863-5.636-8.397-5.636-13.603
		c0-3.899,1.264-7.621,3.792-11.161l1.083-1.299c3.324-4.407,8.093-6.612,14.308-6.612c5.419,0,10.022,1.917,13.819,5.746
		c3.793,3.828,5.69,8.31,5.69,13.437C324.236,353.896,322.318,358.484,318.491,362.312L318.491,362.312z M366.506,381.507
		c0-5.505,0.866-11.263,2.604-17.277l2.383-8.148c-5.565,6.266-12.304,10.983-20.216,14.15c-7.912,3.17-17.179,4.753-27.8,4.753
		c9.03-6.655,13.548-15.521,13.548-26.595c0-8.83-3.198-16.391-9.594-22.688c-6.396-6.293-13.962-9.444-22.704-9.444
		c-10.622,0-19.112,4.234-25.469,12.701l-0.649,0.866l-0.323,0.434c-3.833,5.647-5.746,11.799-5.746,18.455
		c0,11.362,5.202,20.262,15.607,26.702c-15.104,2.174-26.737,6.195-34.901,12.059c-5.419,3.332-9.393,6.774-11.921,10.322
		c-2.528,3.553-3.792,7.283-3.792,11.193c0,5.576,1.445,9.707,4.34,12.387c2.895,2.682,7.093,4.02,12.595,4.02
		c8.034-1.748,12.051-5.242,12.051-10.482c-0.146-0.646-0.271-1.313-0.382-1.998s-0.236-1.24-0.378-1.674
		c-2.469-4.174-5.517-6.262-9.145-6.262c-0.507,0.072-1.177,0.182-2.013,0.324c-0.834,0.145-1.614,0.326-2.339,0.539
		c-3.269,1.369-4.899,3.387-4.899,6.049c0,2.953,1.09,4.758,3.272,5.402c0.946,0.363,1.816,0.541,2.615,0.541
		c0.217,0,0.508,0,0.871,0s1.055-0.178,2.075-0.541l1.308-1.074c0.8-1.076,1.201-2.332,1.201-3.766c0-1.291-0.374-2.438-1.122-3.441
		c2.056,0.566,3.438,1.666,4.147,3.293c0,2.926-0.56,5.084-1.674,6.471c-1.114,1.391-3,2.082-5.659,2.082
		c-7.545,0-11.318-3.264-11.318-9.797c0-0.363,0-1.018,0-1.963c0-4.135,1.93-7.855,5.797-11.16c3.863-3.3,9.444-6.187,16.745-8.656
		c3.395-1.524,9.897-2.722,19.506-3.596c4.403-0.579,8.956-0.87,13.654-0.87v25.205h-7.447l-4.147-4.225v20.607l4.466-4.537h7.128
		v30.4l-9.657-6.936l16.1,31.168l15.871-31.191l-9.46,7.057v-30.498h5.979l4.892,4.986v-21.117l-4.237,4.285h-6.633l-0.078-25.205
		c3.611,0.055,7.388,0.114,11.326,0.169s8.073,0.083,12.409,0.083c7.802,0,14.828,1.714,21.078,5.14
		c6.25,3.427,11.653,8.354,16.205,14.772c0.143,0,0.359,0,0.65,0C368.743,398.314,366.506,390.494,366.506,381.507L366.506,381.507z
		"/>
</g>
</svg>
